<svg width="16" height="16" viewBox="0 0 16 16" fill="none" xmlns="http://www.w3.org/2000/svg">
<g clip-path="url(#clip0_106_477)">
<path d="M16 9.49998C15.9994 8.82551 15.8036 8.16564 15.4363 7.59997C15.069 7.03429 14.5459 6.58697 13.93 6.31198C13.7731 5.40537 13.3076 4.58089 12.6124 3.9782C11.9172 3.37552 11.035 3.03169 10.1153 3.00498C9.19557 2.97826 8.29492 3.2703 7.56589 3.83162C6.83686 4.39293 6.32429 5.18901 6.11501 6.08498C5.78403 5.99536 5.43798 5.97586 5.09903 6.02774C4.76008 6.07962 4.43571 6.20174 4.14669 6.38626C3.85767 6.57078 3.61039 6.81363 3.42068 7.09927C3.23096 7.3849 3.10301 7.70702 3.04501 8.04498C2.43154 8.15751 1.88236 8.49547 1.50544 8.99241C1.12853 9.48934 0.951151 10.1093 1.00818 10.7304C1.06522 11.3515 1.35253 11.9288 1.81365 12.3488C2.27476 12.7688 2.8763 13.001 3.50001 13H12.5C13.4283 13 14.3185 12.6312 14.9749 11.9749C15.6313 11.3185 16 10.4282 16 9.49998ZM5.50001 6.99998C5.62445 7.00257 5.74808 7.02071 5.86801 7.05398L6.85501 7.30598L7.08801 6.31398C7.24428 5.64199 7.6282 5.04475 8.17465 4.62358C8.7211 4.20241 9.39642 3.98324 10.086 4.00326C10.7757 4.02327 11.4371 4.28124 11.9582 4.7334C12.4793 5.18555 12.828 5.80406 12.945 6.48398L13.037 7.00598L13.521 7.22398C14.0438 7.45684 14.4706 7.86227 14.7301 8.37234C14.9895 8.88242 15.0658 9.46616 14.9462 10.0258C14.8266 10.5854 14.5182 11.0869 14.0729 11.4463C13.6276 11.8057 13.0723 12.0012 12.5 12H3.50001C3.12729 11.9988 2.76841 11.8587 2.49346 11.607C2.21852 11.3554 2.04726 11.0103 2.01314 10.6391C1.97903 10.2679 2.0845 9.8974 2.30897 9.59985C2.53343 9.30229 2.86076 9.09911 3.22701 9.02998L3.90501 8.90398L4.02901 8.22698C4.09195 7.88268 4.2736 7.57135 4.54237 7.34717C4.81115 7.12298 5.15001 7.00012 5.50001 6.99998ZM1.72201 16H0.618011L1.55401 14H2.65801L1.72201 16ZM3.61801 16L4.55401 14H5.65801L4.72201 16H3.61801ZM6.61801 16L7.55401 14H8.65801L7.72201 16H6.61801ZM9.61801 16L10.554 14H11.658L10.722 16H9.61801ZM13.554 14H14.658L13.722 16H12.618L13.554 14Z" fill="black"/>
</g>
<defs>
<clipPath id="clip0_106_477">
<rect width="16" height="16" fill="white"/>
</clipPath>
</defs>
</svg>
